<svg width="108" height="108" viewBox="0 0 108 108" fill="none" xmlns="http://www.w3.org/2000/svg">
<rect x="20.8332" y="1.35063" width="88" height="88" rx="19" transform="rotate(12.7909 20.8332 1.35063)" fill="url(#paint0_linear)" fill-opacity="0.9" stroke="url(#paint1_linear)" stroke-width="2"/>
<g clip-path="url(#clip0)">
<path d="M47.1542 29.1373L47.1545 29.1376L47.1545 29.1376L47.1548 29.1379L47.2098 29.1868L47.2779 29.218L70.6367 39.9147L73.7747 76.3894L73.5346 76.3107L73.3356 76.2455L73.1496 76.3414C73.1337 76.3496 73.1198 76.3574 73.1084 76.3641C73.1077 76.3645 73.1071 76.3649 73.1064 76.3653C72.9737 76.3796 72.8439 76.3981 72.7167 76.4205L73.0151 76.3037L71.6243 75.8882L41.9001 67.0085C41.7323 66.9489 40.4192 66.5002 38.9303 66.429C37.3951 66.3555 35.4418 66.6814 34.5699 68.5547C34.2544 69.2321 34.1228 69.8937 34.2401 70.526C34.3585 71.1642 34.7182 71.7067 35.2612 72.1628C35.8038 72.6185 36.4506 72.9186 36.9458 73.1035C37.1966 73.1971 37.416 73.2639 37.5749 73.3077C37.6545 73.3296 37.7194 73.3459 37.7661 73.3571L37.7665 73.3572C37.7831 73.3611 37.8095 73.3674 37.8356 73.3728L67.3018 80.9731L67.7002 81.0758L67.8777 80.7046L67.9036 80.6505L68.0322 80.3816L68.0954 81.1751L37.2043 73.442L37.204 73.4419L37.202 73.4413L37.1983 73.4403L37.1704 73.4323C37.1446 73.4247 37.1052 73.4127 37.0541 73.396C36.9519 73.3626 36.8038 73.3106 36.6264 73.2378C36.2696 73.0914 35.8043 72.8652 35.3574 72.5446C34.4656 71.905 33.7069 70.9435 33.9051 69.5016L39.8187 32.7985L39.8187 32.798L39.8189 32.7973L39.8206 32.7873C39.8224 32.7775 39.8255 32.7616 39.8299 32.7399C39.8387 32.6965 39.8532 32.6303 39.8746 32.5451C39.9174 32.3744 39.9879 32.1283 40.0969 31.8356C40.3155 31.2485 40.6849 30.4854 41.2869 29.7686C42.0202 28.8955 42.747 28.4459 43.4078 28.2389C44.0703 28.0313 44.7014 28.0567 45.2583 28.1887C45.8182 28.3213 46.2967 28.5605 46.6379 28.7701C46.8074 28.8742 46.9403 28.9693 47.0292 29.037C47.0736 29.0708 47.1068 29.0976 47.1279 29.1151C47.1384 29.1239 47.146 29.1303 47.1503 29.134L47.1542 29.1373ZM48.4903 45.3041L48.4372 45.7031L48.8156 45.8402L67.956 52.775L68.659 53.0297L68.6258 52.2827L68.29 44.7195L68.2761 44.408L67.9903 44.2834L50.2966 36.5693L49.6887 36.3043L49.6011 36.9616L48.4903 45.3041Z" fill="#9DA2C8" stroke="#6668AA"/>
</g>
<defs>
<linearGradient id="paint0_linear" x1="64.9467" y1="-28.7139" x2="64.9467" y2="114.777" gradientUnits="userSpaceOnUse">
<stop stop-color="#4C5E9D"/>
<stop offset="1" stop-color="#171836"/>
</linearGradient>
<linearGradient id="paint1_linear" x1="65.0794" y1="0.154053" x2="65.0794" y2="90.1541" gradientUnits="userSpaceOnUse">
<stop stop-color="#3F458D" stop-opacity="0.63"/>
<stop offset="1" stop-color="#3F458D" stop-opacity="0.14"/>
</linearGradient>
<clipPath id="clip0">
<rect width="60" height="60" fill="white" transform="translate(50.59 15) rotate(40.0283)"/>
</clipPath>
</defs>
</svg>
