<svg width="85" height="85" viewBox="0 0 85 85" fill="none" xmlns="http://www.w3.org/2000/svg">
<g clip-path="url(#clip0)">
<path d="M35.1542 14.1373L35.1545 14.1376L35.1545 14.1376L35.1548 14.1379L35.2098 14.1868L35.2779 14.218L58.6367 24.9147L61.7747 61.3894L61.5346 61.3107L61.3356 61.2455L61.1496 61.3414C61.1337 61.3496 61.1198 61.3574 61.1084 61.3641C61.1077 61.3645 61.1071 61.3649 61.1064 61.3653C60.9737 61.3796 60.8439 61.3981 60.7167 61.4205L61.0151 61.3037L59.6243 60.8882L29.9001 52.0085C29.7323 51.9489 28.4192 51.5002 26.9303 51.429C25.3951 51.3555 23.4418 51.6814 22.5699 53.5547C22.2544 54.2321 22.1228 54.8937 22.2401 55.526C22.3585 56.1642 22.7182 56.7067 23.2612 57.1628C23.8038 57.6185 24.4506 57.9186 24.9458 58.1035C25.1966 58.1971 25.416 58.2639 25.5749 58.3077C25.6545 58.3296 25.7194 58.3459 25.7661 58.3571L25.7665 58.3572C25.7831 58.3611 25.8095 58.3674 25.8356 58.3728L55.3018 65.9731L55.7002 66.0758L55.8777 65.7046L55.9036 65.6505L56.0322 65.3816L56.0954 66.1751L25.2043 58.442L25.204 58.4419L25.202 58.4413L25.1983 58.4403L25.1704 58.4323C25.1446 58.4247 25.1052 58.4127 25.0541 58.396C24.9519 58.3626 24.8038 58.3106 24.6264 58.2378C24.2696 58.0914 23.8043 57.8652 23.3574 57.5446C22.4656 56.905 21.7069 55.9435 21.9051 54.5016L27.8187 17.7985L27.8187 17.798L27.8189 17.7973L27.8206 17.7873C27.8224 17.7775 27.8255 17.7616 27.8299 17.7399C27.8387 17.6965 27.8532 17.6303 27.8746 17.5451C27.9174 17.3744 27.9879 17.1283 28.0969 16.8356C28.3155 16.2485 28.6849 15.4854 29.2869 14.7686C30.0202 13.8955 30.747 13.4459 31.4078 13.2389C32.0703 13.0313 32.7014 13.0567 33.2583 13.1887C33.8182 13.3213 34.2967 13.5605 34.6379 13.7701C34.8074 13.8742 34.9403 13.9693 35.0292 14.037C35.0736 14.0708 35.1068 14.0976 35.1279 14.1151C35.1384 14.1239 35.146 14.1303 35.1503 14.134L35.1542 14.1373ZM36.4903 30.3041L36.4372 30.7031L36.8156 30.8402L55.956 37.775L56.659 38.0297L56.6258 37.2827L56.29 29.7195L56.2761 29.408L55.9903 29.2834L38.2966 21.5693L37.6887 21.3043L37.6011 21.9616L36.4903 30.3041Z" fill="#9DA2C8" stroke="#6668AA"/>
</g>
<defs>
<clipPath id="clip0">
<rect width="60" height="60" fill="white" transform="translate(38.59) rotate(40.0283)"/>
</clipPath>
</defs>
</svg>
