<svg width="88" height="40" viewBox="0 0 88 40" fill="none" xmlns="http://www.w3.org/2000/svg">
<g filter="url(#filter0_d)">
<path d="M78.469 28.7031C78.469 29.8586 76.6878 27.5476 75.5004 27.5476C74.3129 27.5476 71.938 29.8586 71.938 28.7031C74.3129 26.3921 74.3381 21.77 75.2629 21.77C76.1877 21.77 76.6878 26.3921 78.469 28.7031Z" fill="#F5443B"/>
<path d="M16.6105 24.2716C16.6105 25.0901 16.419 25.7955 16.0358 26.3876C15.6701 26.9623 15.0605 27.4935 14.2072 27.9812C13.6324 28.3295 12.9619 28.5907 12.1956 28.7649C11.4293 28.939 10.6543 29.0261 9.87058 29.0261C9.06945 29.0261 8.07674 28.7649 6.89246 28.2424C6.03908 27.8244 5.35986 27.3281 4.8548 26.7533C4.36715 26.1786 4.12333 25.5516 4.12333 24.8724C4.12333 24.4022 4.22782 24.0626 4.43681 23.8536C4.64581 23.6272 4.98542 23.514 5.45565 23.514C5.69947 23.514 5.952 23.6185 6.21324 23.8275C6.47448 24.019 6.63122 24.2106 6.68347 24.4022C6.92729 25.1162 7.35398 25.6648 7.96354 26.048C8.5731 26.4137 9.33069 26.5966 10.2363 26.5966C11.2813 26.5966 12.1521 26.405 12.8487 26.0219C13.5628 25.6387 13.9198 25.125 13.9198 24.4806C13.9198 23.8536 13.5366 23.2963 12.7703 22.8086C12.004 22.321 11.2203 21.9814 10.4192 21.7898C9.26973 21.4763 8.2509 21.1019 7.36269 20.6665C6.43965 20.2137 5.75172 19.6564 5.2989 18.9945C4.84609 18.3327 4.61968 17.6361 4.61968 16.9046C4.61968 16.2254 4.8548 15.5375 5.32503 14.8408C5.79526 14.1268 6.35257 13.613 6.99696 13.2995C7.34527 13.1254 7.93742 12.9425 8.77338 12.7509C9.62676 12.5419 10.245 12.4375 10.6282 12.4375C11.1332 12.4375 11.6905 12.4984 12.3001 12.6203C12.9097 12.7422 13.406 12.9164 13.7892 13.1428C14.5555 13.5782 15.1215 13.9701 15.4872 14.3184C15.853 14.6667 16.0358 15.1021 16.0358 15.6246C16.0358 15.9381 15.9139 16.2167 15.6701 16.4605C15.4437 16.7044 15.0431 16.8263 14.4684 16.8263C14.3291 16.8263 14.1897 16.7653 14.0504 16.6434C13.9111 16.5215 13.7369 16.3386 13.5279 16.0948C13.2493 15.7291 12.9793 15.4852 12.7181 15.3633C12.4569 15.2762 12.0737 15.1805 11.5686 15.076C11.081 14.9715 10.6456 14.9192 10.2624 14.9192C9.84446 14.9192 9.40906 15.0063 8.95625 15.1805C8.50343 15.3546 8.12028 15.6071 7.8068 15.9381C7.51073 16.2515 7.36269 16.6173 7.36269 17.0353C7.36269 17.3836 7.51943 17.6884 7.83292 17.9496C8.16382 18.1934 8.55568 18.3937 9.0085 18.5504C9.53097 18.7594 10.097 18.9423 10.7065 19.099C11.5077 19.3429 12.1608 19.5693 12.6658 19.7783C13.1883 19.9698 13.6934 20.2137 14.181 20.5097C15.0344 21.0148 15.6527 21.5373 16.0358 22.0772C16.419 22.5996 16.6105 23.3311 16.6105 24.2716ZM20.3861 12.2285C20.9956 12.2807 21.5268 12.4462 21.9796 12.7248C22.4324 12.9861 22.6588 13.3866 22.6588 13.9265C22.6588 14.3271 22.4673 14.6493 22.0841 14.8931C21.7184 15.1195 21.2743 15.2327 20.7518 15.2327C20.2467 15.2327 19.8984 15.1021 19.7068 14.8408C19.5153 14.5796 19.4195 14.3097 19.4195 14.031C19.4195 13.5085 19.4717 13.0731 19.5762 12.7248C19.6981 12.3765 19.9681 12.211 20.3861 12.2285ZM22.476 23.8013V24.5589C22.476 25.2382 22.4934 25.8825 22.5282 26.4921C22.5805 27.0842 22.6414 27.6851 22.7111 28.2947C22.6937 28.4688 22.5631 28.6517 22.3192 28.8433C22.0754 29.0174 21.8577 29.1045 21.6661 29.1045C21.3352 29.1045 20.9956 29.0435 20.6473 28.9216C20.3164 28.7823 20.1161 28.6168 20.0465 28.4253C19.942 27.868 19.8897 27.3716 19.8897 26.9362C19.8897 25.5081 19.8462 23.9058 19.7591 22.1294C19.6894 20.562 19.6546 19.4648 19.6546 18.8378C19.6546 18.5243 19.8113 18.2544 20.1248 18.028C20.4383 17.8016 20.7692 17.6884 21.1175 17.6884C21.6226 17.6884 21.9709 17.8016 22.1625 18.028C22.3715 18.2544 22.476 18.6114 22.476 19.099V23.8013ZM37.6503 26.9885C37.7374 27.0233 37.8767 27.0668 38.0683 27.1191C38.2598 27.1713 38.3992 27.2236 38.4862 27.2758C38.5733 27.3281 38.6169 27.4064 38.6169 27.5109C38.6343 27.9289 38.4775 28.2772 38.1466 28.5559C37.8332 28.8171 37.4587 28.9478 37.0233 28.9478C36.3441 28.9478 35.8129 28.7649 35.4298 28.3992C35.0466 28.0334 34.7679 27.4761 34.5938 26.7272C34.5241 26.4312 34.4893 26.0219 34.4893 25.4994C34.4893 25.2033 34.5067 24.7244 34.5415 24.0626C34.5764 23.3659 34.5938 22.8086 34.5938 22.3907C34.5938 21.7811 34.4196 21.2499 34.0713 20.7971C33.7404 20.3269 33.2702 20.0918 32.6606 20.0918C32.2949 20.0918 31.9117 20.205 31.5112 20.4314C31.1106 20.6404 30.8319 20.9016 30.6752 21.2151C30.414 21.7201 30.2311 22.2687 30.1266 22.8609C29.935 23.9058 29.8392 24.9943 29.8392 26.1264C29.8392 26.6663 29.8479 27.0842 29.8654 27.3803C29.8654 27.45 29.8654 27.5893 29.8654 27.7983C29.8828 27.9899 29.8654 28.1727 29.8131 28.3469C29.7783 28.5036 29.7086 28.6517 29.6041 28.791C29.517 28.8781 29.3777 28.9478 29.1861 29C29.012 29.0697 28.8465 29.1045 28.6898 29.1045C28.446 29.1045 28.1412 29 27.7755 28.791C27.4097 28.582 27.2007 28.3469 27.1485 28.0857L27.1224 27.6416C27.1224 27.4848 27.1398 27.3019 27.1746 27.093C27.3836 25.8738 27.4881 24.8115 27.4881 23.9058C27.4881 23.5053 27.4794 23.1918 27.462 22.9654L27.4358 21.7376C27.4358 21.3196 27.3313 20.919 27.1224 20.5359C26.9134 20.1353 26.6695 19.935 26.3909 19.935C26.3038 19.935 26.1819 19.9698 26.0252 20.0395C25.8684 20.0918 25.7378 20.1179 25.6333 20.1179C25.4591 20.1179 25.2676 20.0308 25.0586 19.8566C24.867 19.6825 24.7712 19.4996 24.7712 19.308C24.7712 18.9423 24.8931 18.6462 25.1369 18.4198C25.3982 18.2108 25.6507 18.0454 25.8945 17.9235C26.1558 17.8016 26.4518 17.7406 26.7827 17.7406C27.0614 17.7406 27.2878 17.7667 27.462 17.819C27.6361 17.8712 27.8712 17.9844 28.1673 18.1586C28.3241 18.2457 28.5069 18.4372 28.7159 18.7333C28.9249 19.0294 29.0991 19.4474 29.2384 19.9873C29.6912 19.1513 30.2485 18.5679 30.9103 18.237C31.5895 17.8886 32.4516 17.7145 33.4966 17.7145C33.8972 17.7145 34.3238 17.8451 34.7767 18.1063C35.2469 18.3676 35.6475 18.6724 35.9784 19.0207C36.2918 19.4038 36.5531 19.8828 36.7621 20.4575C36.9711 21.0148 37.0756 21.5199 37.0756 21.9727C37.0756 22.2339 37.0581 22.6606 37.0233 23.2527C36.9711 23.723 36.9449 24.2193 36.9449 24.7418C36.9449 25.9609 37.1801 26.7098 37.6503 26.9885ZM50.4361 29.1045C49.844 29.1045 49.3911 29.0174 49.0777 28.8433C48.7642 28.6517 48.4246 28.3034 48.0588 27.7983C47.606 28.1989 46.9268 28.5211 46.0212 28.7649C45.1329 29.0087 44.3666 29.1306 43.7223 29.1306C42.6599 29.1306 41.7978 28.8433 41.136 28.2685C40.4916 27.6764 40.1694 26.8143 40.1694 25.6823C40.1694 25.1946 40.3 24.7505 40.5613 24.3499C40.8399 23.932 41.1969 23.5662 41.6323 23.2527C42.12 22.9218 42.6947 22.6606 43.3565 22.469C44.0357 22.2775 44.654 22.1817 45.2113 22.1817C46.1518 22.1817 46.9877 22.2687 47.7192 22.4429V22.4168C47.7192 21.4763 47.4841 20.8319 47.0139 20.4836C46.561 20.1179 45.8296 19.935 44.8195 19.935C44.1751 19.935 43.6178 20.2224 43.1475 20.7971C42.9734 21.0235 42.6076 21.1367 42.0503 21.1367C41.7717 21.1367 41.5627 21.0235 41.4233 20.7971C41.3014 20.5533 41.2405 20.3095 41.2405 20.0656C41.2405 19.5606 41.4495 19.1252 41.8675 18.7594C42.3029 18.3937 42.8253 18.1238 43.4349 17.9496C44.0444 17.758 44.6105 17.6622 45.1329 17.6622C45.638 17.6622 46.2389 17.7667 46.9355 17.9757C47.6321 18.1847 48.1981 18.4634 48.6335 18.8117C49.156 19.2645 49.5566 19.7957 49.8352 20.4052C50.1313 20.9974 50.2793 21.6505 50.2793 22.3645C50.2793 22.5909 50.2619 22.9305 50.2271 23.3834C50.1923 23.9058 50.1749 24.3325 50.1749 24.6634C50.1749 24.8202 50.1574 25.0205 50.1226 25.2643C50.0878 25.5778 50.0704 25.839 50.0704 26.048C50.0704 26.2744 50.14 26.4921 50.2793 26.7011C50.4187 26.9101 50.6103 27.0842 50.8541 27.2236C51.0805 27.3455 51.2285 27.4761 51.2982 27.6154C51.3678 27.7548 51.4027 27.9115 51.4027 28.0857C51.4027 28.2598 51.2895 28.4775 51.0631 28.7388C50.8541 28.9826 50.6451 29.1045 50.4361 29.1045ZM45.2113 24.1148C44.5321 24.1148 43.9312 24.2455 43.4088 24.5067C42.8863 24.7679 42.625 25.2295 42.625 25.8913C42.625 26.2222 42.7383 26.5008 42.9647 26.7272C43.2085 26.9536 43.4697 27.0668 43.7484 27.0668C44.4973 27.0668 45.1242 26.9885 45.6293 26.8317C46.1344 26.675 46.7439 26.3876 47.458 25.9696C47.545 25.691 47.5973 25.2991 47.6147 24.7941C47.6147 24.6025 47.6234 24.4544 47.6408 24.3499C46.7004 24.1932 45.8905 24.1148 45.2113 24.1148ZM53.0795 20.1962C52.9402 20.1962 52.8183 20.144 52.7138 20.0395C52.6093 19.9176 52.557 19.7783 52.557 19.6215C52.557 19.1165 52.7225 18.7333 53.0534 18.4721C53.3843 18.1934 53.7936 18.0541 54.2812 18.0541C54.9604 18.0541 55.5439 18.237 56.0315 18.6027C56.5366 18.951 56.7891 19.4561 56.7891 20.1179C56.7891 20.292 56.7543 20.9538 56.6846 22.1033C56.6149 23.4269 56.5801 24.3064 56.5801 24.7418C56.5801 25.3514 56.6933 25.8477 56.9197 26.2309C57.1635 26.5966 57.538 26.7795 58.043 26.7795C59.0183 26.7795 59.7672 26.2396 60.2897 25.1598C60.8296 24.0626 61.1866 22.7216 61.3608 21.1367C61.4304 20.4401 61.5349 19.7086 61.6743 18.9423C61.7439 18.5243 61.8397 18.2195 61.9616 18.028C62.0835 17.8364 62.3187 17.7406 62.667 17.7406C62.8934 17.7406 63.1546 17.7928 63.4507 17.8973C63.7642 18.0018 63.9645 18.1412 64.0515 18.3153C64.156 18.5766 64.2083 18.8639 64.2083 19.1774C64.2083 19.6128 64.1473 20.1788 64.0254 20.8755C63.8861 21.5721 63.7903 22.3297 63.7381 23.1482C63.7032 23.8797 63.8164 24.646 64.0777 25.4472C64.3389 26.2483 64.7133 26.7708 65.201 27.0146C65.7583 27.2932 66.037 27.5458 66.037 27.7722C66.037 28.1379 65.9063 28.4253 65.6451 28.6343C65.3839 28.8433 65.1313 28.9478 64.8875 28.9478C64.2431 28.9478 63.6597 28.7126 63.1372 28.2424C62.6321 27.7722 62.2664 27.1887 62.04 26.4921C61.6743 27.0494 61.3172 27.5109 60.9689 27.8767C60.638 28.225 60.2113 28.5211 59.6888 28.7649C59.1664 28.9913 58.522 29.1045 57.7557 29.1045C56.8501 29.1045 56.0228 28.7823 55.2739 28.1379C54.5424 27.4935 54.1767 26.3876 54.1767 24.8202C54.1767 24.3848 54.1854 23.9233 54.2028 23.4356C54.2377 22.948 54.2551 22.5996 54.2551 22.3907C54.3073 21.7637 54.3335 21.189 54.3335 20.6665C54.3335 20.5097 54.2725 20.3791 54.1506 20.2746C54.0461 20.1701 53.9242 20.1179 53.7848 20.1179C53.6804 20.1179 53.5584 20.1353 53.4191 20.1701C53.2972 20.1875 53.184 20.1962 53.0795 20.1962ZM79.9522 22.7825C80.0567 22.3994 80.1699 21.8769 80.2918 21.2151C80.466 20.4314 80.6053 19.8392 80.7098 19.4387C80.8143 19.0381 80.9536 18.6985 81.1278 18.4198C81.3194 18.1063 81.4848 17.8973 81.6241 17.7928C81.7809 17.6884 81.9463 17.6361 82.1205 17.6361C83.0261 17.6361 83.4789 17.9844 83.4789 18.6811C83.4789 19.0294 83.3396 19.6825 83.061 20.6404C82.1379 23.4269 81.4761 25.5865 81.0755 27.1191C80.9014 27.7635 80.6401 28.2598 80.2918 28.6081C79.9435 28.939 79.4733 29.1045 78.8811 29.1045C78.5851 29.1045 78.2803 28.9652 77.9668 28.6865C77.6707 28.3904 77.4269 28.0334 77.2353 27.6154L76.948 26.9101C76.4603 25.6736 76.0946 24.7244 75.8508 24.0626C75.6244 23.3834 75.4763 22.7738 75.4067 22.2339L75.1715 23.0699C74.7536 24.5676 74.3182 25.9609 73.8653 27.2497C73.6389 27.9115 73.3603 28.3904 73.0294 28.6865C72.6985 28.9652 72.2718 29.1045 71.7493 29.1045C71.4358 29.1045 71.1572 29.0348 70.9133 28.8955C70.6869 28.7562 70.4692 28.5211 70.2603 28.1902C69.9816 27.7373 69.7116 27.1278 69.4504 26.3615C69.2066 25.5952 68.8496 24.4022 68.3793 22.7825C68.1529 22.0859 67.9439 21.3544 67.7524 20.5881C67.5608 19.8044 67.465 19.2558 67.465 18.9423C67.465 18.5766 67.5608 18.2892 67.7524 18.0802C67.9439 17.8712 68.2226 17.7667 68.5883 17.7667C69.0586 17.7667 69.3895 17.8625 69.581 18.0541C69.7726 18.2282 69.9468 18.4982 70.1035 18.8639C70.1906 19.4909 70.3822 20.3791 70.6782 21.5286L71.253 23.9842C71.2878 24.1758 71.3923 24.5764 71.5664 25.1859L71.7754 25.9435C72.1586 25.125 72.4808 24.3412 72.742 23.5924C73.0033 22.8435 73.2906 21.9204 73.6041 20.8232C73.6215 20.7536 73.7957 20.1527 74.1266 19.0207C74.353 18.6549 74.5533 18.385 74.7274 18.2108C74.9016 18.0193 75.0758 17.9235 75.2499 17.9235C75.5982 17.9235 75.8943 18.0367 76.1381 18.2631C76.3994 18.4721 76.5909 18.7333 76.7129 19.0468C76.9218 19.726 77.1047 20.3443 77.2615 20.9016C77.3311 21.128 77.4879 21.6766 77.7317 22.5474C77.9929 23.4008 78.228 24.1235 78.437 24.7157C78.646 25.3078 78.8202 25.7258 78.9595 25.9696L79.9522 22.7825Z" fill="url(#paint0_linear)"/>
<path d="M23.3186 13.7875C23.3186 14.9899 22.3439 15.6017 21.1416 15.6017C19.9393 15.6017 19.3274 14.9899 19.3274 13.7875C19.3274 12.5852 19.9393 11.9734 21.1416 11.9734C22.3439 11.9734 23.3186 12.5852 23.3186 13.7875Z" fill="#F5443B"/>
</g>
<defs>
<filter id="filter0_d" x="0.123327" y="11.9734" width="87.3556" height="25.1573" filterUnits="userSpaceOnUse" color-interpolation-filters="sRGB">
<feFlood flood-opacity="0" result="BackgroundImageFix"/>
<feColorMatrix in="SourceAlpha" type="matrix" values="0 0 0 0 0 0 0 0 0 0 0 0 0 0 0 0 0 0 127 0" result="hardAlpha"/>
<feOffset dy="4"/>
<feGaussianBlur stdDeviation="2"/>
<feComposite in2="hardAlpha" operator="out"/>
<feColorMatrix type="matrix" values="0 0 0 0 0 0 0 0 0 0 0 0 0 0 0 0 0 0 0.25 0"/>
<feBlend mode="normal" in2="BackgroundImageFix" result="effect1_dropShadow"/>
<feBlend mode="normal" in="SourceGraphic" in2="effect1_dropShadow" result="shape"/>
</filter>
<linearGradient id="paint0_linear" x1="44" y1="0" x2="44" y2="39.1858" gradientUnits="userSpaceOnUse">
<stop stop-color="#C7CAFE"/>
<stop offset="1" stop-color="#3D408F"/>
</linearGradient>
</defs>
</svg>
